<?xml version="1.0" standalone="no"?>
<!DOCTYPE svg PUBLIC "-//W3C//DTD SVG 20010904//EN"
 "http://www.w3.org/TR/2001/REC-SVG-20010904/DTD/svg10.dtd">
<svg version="1.0" xmlns="http://www.w3.org/2000/svg"
 width="1112.000000pt" height="1112.000000pt" viewBox="0 0 1112.000000 1112.000000"
 preserveAspectRatio="xMidYMid meet">
<metadata>
Created by potrace 1.11, written by Peter Selinger 2001-2013
</metadata>
<g transform="translate(0.000000,1112.000000) scale(0.100000,-0.100000)"
fill="#000000" stroke="none">
<path d="M7230 8351 c-60 -28 -85 -49 -109 -91 -12 -22 -19 -40 -15 -40 5 0 3
-5 -2 -10 -15 -15 -7 -116 12 -151 37 -73 123 -122 211 -120 166 4 261 119
228 275 -10 50 -86 129 -135 141 -63 15 -153 13 -190 -4z"/>
<path d="M7893 8127 c-2 -4 -4 -91 -3 -192 l1 -185 -115 0 -115 0 2 -152 2
-153 110 0 110 0 6 -480 c4 -346 9 -491 18 -520 37 -118 102 -198 193 -239 70
-31 97 -37 192 -42 43 -2 83 -7 87 -10 5 -3 9 -2 9 3 0 4 21 9 48 10 26 1 70
8 97 15 l50 13 3 156 2 156 -98 -1 c-111 -1 -139 10 -168 67 -15 28 -17 78
-18 432 -1 220 0 409 2 420 3 20 10 21 187 20 101 0 186 -3 188 -5 2 -3 16
-39 30 -80 14 -41 53 -154 87 -250 34 -96 72 -206 85 -245 13 -38 45 -128 70
-200 25 -71 48 -134 49 -140 2 -5 6 -17 9 -25 16 -40 49 -138 53 -160 3 -13 9
-29 13 -35 24 -30 47 -141 33 -158 -5 -7 -17 -34 -27 -62 -20 -53 -47 -99 -77
-128 -32 -31 -121 -57 -197 -57 l-69 0 1 -156 c0 -152 1 -156 23 -164 51 -20
197 -28 264 -15 34 7 124 37 130 44 3 3 17 13 32 21 87 49 153 130 205 253 19
45 37 89 39 97 4 16 10 33 104 300 34 96 63 180 64 185 2 6 6 19 10 30 5 11
12 31 16 45 4 14 11 34 15 45 34 94 117 332 119 340 2 6 6 17 9 25 3 8 12 35
20 60 9 25 48 137 87 250 40 113 91 261 115 330 24 69 46 133 50 143 7 16 -8
17 -218 17 l-224 0 -48 -162 c-25 -90 -49 -170 -51 -178 -3 -8 -6 -17 -6 -20
0 -3 -5 -16 -10 -30 -5 -14 -11 -32 -13 -40 -2 -8 -25 -85 -51 -170 -25 -85
-52 -175 -59 -200 -47 -166 -47 -166 -58 -140 -5 14 -13 39 -17 55 -4 17 -22
75 -39 130 -17 55 -33 107 -35 115 -6 24 -55 190 -70 240 -29 90 -78 253 -80
264 -2 6 -9 31 -16 56 -16 54 -17 57 -19 70 -1 6 -134 11 -363 12 l-362 3 1
190 1 190 -205 0 c-113 0 -207 -4 -210 -8z"/>
<path d="M657 7784 c-1 -1 -35 -4 -76 -8 -117 -10 -220 -44 -318 -106 -58 -36
-163 -147 -163 -171 0 -10 -4 -20 -9 -23 -20 -13 -43 -134 -38 -202 6 -89 10
-104 44 -165 64 -119 228 -220 443 -274 8 -2 47 -10 85 -19 200 -43 292 -100
296 -182 3 -54 -1 -69 -29 -101 -42 -50 -113 -77 -202 -76 -77 0 -172 24 -198
49 -7 8 -19 17 -25 21 -31 19 -69 97 -71 148 -1 6 -73 10 -196 10 l-195 0 -1
-35 c-4 -150 136 -334 316 -417 46 -21 101 -40 139 -48 11 -3 31 -8 44 -11 12
-3 60 -7 107 -10 47 -2 87 -4 90 -5 7 -2 5 -2 88 5 130 12 289 73 387 150 151
117 197 331 111 516 -24 52 -106 137 -167 172 -49 28 -141 65 -194 78 -5 1
-20 6 -33 11 -12 5 -33 11 -45 13 -12 3 -33 8 -47 11 -14 3 -36 8 -50 11 -89
16 -125 26 -176 49 -79 35 -112 68 -119 120 -7 46 13 108 43 131 64 51 173 69
262 44 82 -22 123 -65 144 -149 l11 -46 190 0 c105 0 198 1 208 3 15 4 17 12
12 46 -17 120 -55 196 -135 275 -65 64 -184 129 -285 156 -49 12 -240 35 -248
29z"/>
<path d="M2040 7765 c-104 -24 -170 -51 -244 -100 -172 -110 -289 -315 -321
-560 -8 -60 -8 -279 0 -315 3 -14 8 -38 10 -55 6 -34 19 -71 46 -132 11 -24
19 -45 19 -48 0 -12 78 -122 115 -163 73 -80 229 -176 320 -197 6 -2 29 -8 52
-14 197 -54 471 -11 644 100 54 35 169 143 169 159 0 3 -15 21 -33 41 -65 71
-152 171 -158 181 -4 6 -28 -11 -55 -37 -47 -45 -143 -102 -188 -111 -98 -20
-144 -23 -212 -12 -111 17 -205 80 -261 175 -29 50 -56 145 -44 153 5 3 228 5
495 4 437 -1 486 1 490 15 6 22 0 257 -8 311 -35 240 -124 401 -282 507 -61
42 -172 90 -227 100 -69 12 -273 10 -327 -2z m230 -330 c87 -17 157 -80 187
-170 18 -56 24 -133 11 -142 -7 -4 -368 -7 -537 -4 l-34 1 6 45 c4 24 11 53
16 62 5 10 17 35 25 55 33 76 121 146 196 155 19 3 36 6 38 8 3 3 47 -2 92
-10z"/>
<path d="M3580 7777 c-3 -3 -25 -8 -50 -12 -138 -20 -313 -133 -397 -256 -64
-93 -124 -234 -139 -326 -13 -81 -12 -338 1 -413 43 -235 151 -404 331 -518
28 -18 57 -32 65 -32 8 0 19 -4 25 -9 13 -14 120 -41 183 -47 30 -2 56 -6 58
-8 2 -2 20 0 39 4 20 5 34 4 34 -2 0 -5 4 -7 8 -4 5 3 30 7 57 11 154 18 291
80 386 175 99 98 149 200 165 338 l7 52 -197 0 c-180 0 -196 -1 -197 -17 -7
-97 -71 -170 -184 -209 -11 -4 -50 -6 -87 -6 -102 1 -184 46 -224 124 -33 63
-69 203 -66 253 1 18 1 139 0 160 -4 67 21 179 56 259 53 120 190 175 328 132
92 -29 157 -110 174 -213 l7 -43 193 0 194 0 0 43 c0 24 -9 79 -20 122 -50
196 -188 341 -391 412 -62 21 -97 26 -214 30 -77 3 -142 3 -145 0z"/>
<path d="M6736 7764 c-84 -26 -183 -101 -215 -162 -21 -40 -26 -21 -30 116
l-1 32 -198 0 -197 0 0 -780 0 -779 65 -3 c36 -2 129 -2 208 0 l142 3 0 512
c0 466 2 515 17 537 40 59 100 99 173 118 14 4 79 7 145 7 66 0 122 3 125 6 3
4 5 94 5 200 0 221 13 198 -115 204 -50 3 -91 -1 -124 -11z"/>
<path d="M7119 7720 c-3 -212 0 -1523 4 -1526 5 -5 102 -6 328 -5 l87 1 0 780
0 779 -209 3 -209 3 -1 -35z"/>
<path d="M4505 7178 c1 -621 2 -630 57 -743 50 -102 57 -112 103 -153 42 -37
165 -110 165 -97 0 3 8 1 18 -4 19 -10 117 -25 147 -22 11 1 27 2 35 2 60 -3
87 0 142 15 81 20 168 67 229 122 46 41 49 42 50 20 1 -41 10 -122 13 -125 6
-6 378 -4 384 1 7 8 9 1535 1 1547 -3 6 -92 8 -210 7 l-204 -3 0 -550 c-1
-385 -4 -556 -12 -570 -17 -30 -75 -80 -114 -98 -57 -26 -101 -34 -169 -30
-91 5 -147 35 -185 97 l-30 49 -2 546 c-1 300 -2 549 -2 554 -1 4 -94 7 -209
7 l-207 0 0 -572z"/>
<path d="M5905 5517 c-96 -56 -128 -105 -127 -192 0 -68 2 -80 21 -115 57
-106 232 -141 347 -69 19 12 47 40 62 63 22 35 26 52 26 111 0 89 -26 138 -92
180 -42 27 -57 30 -132 32 -50 1 -93 -3 -105 -10z"/>
<path d="M4936 5290 c-2 -3 -4 -84 -4 -180 0 -96 -1 -180 -1 -186 -1 -8 -35
-11 -111 -10 -67 0 -110 -3 -111 -9 -3 -27 -4 -272 -1 -285 2 -12 23 -15 113
-14 60 0 109 -2 110 -5 0 -3 2 -213 3 -466 2 -253 6 -473 10 -490 29 -131 93
-223 187 -270 74 -38 159 -53 279 -50 58 1 116 6 127 9 28 9 65 17 81 18 15 2
14 -8 14 158 0 175 0 170 -16 164 -33 -13 -162 -10 -191 4 -75 37 -75 41 -75
517 l0 412 130 -1 c72 -1 131 1 131 4 1 3 3 71 5 153 2 131 1 147 -14 148 -10
0 -70 1 -134 1 l-118 1 0 192 0 191 -206 0 c-113 0 -207 -3 -208 -6z"/>
<path d="M9674 5286 c-2 -6 -5 -92 -6 -191 l-3 -180 -90 -2 c-49 0 -99 -1
-111 -2 -19 -1 -20 -7 -20 -148 -1 -82 3 -150 7 -153 4 -3 55 -5 113 -4 l106
1 1 -421 c0 -232 2 -447 4 -478 14 -202 124 -336 307 -374 76 -16 270 -8 353
14 l30 8 3 161 2 161 -32 -7 c-56 -12 -151 -5 -187 13 -60 31 -61 40 -61 504
l0 419 130 -1 c79 -1 131 3 133 9 3 9 1 265 -2 290 -1 6 -51 9 -131 8 l-130
-1 0 192 0 193 -206 -1 c-135 0 -207 -4 -210 -10z"/>
<path d="M608 4945 c-2 -2 -24 -5 -48 -6 -59 -3 -155 -32 -216 -66 -48 -26
-194 -163 -194 -182 0 -6 -13 -32 -29 -59 -40 -68 -78 -183 -94 -284 -18 -110
-14 -349 7 -448 1 -8 6 -33 10 -55 34 -174 141 -347 271 -434 149 -101 383
-118 540 -39 39 20 123 82 137 103 10 13 10 31 10 -372 l1 -353 209 0 c191 0
208 1 208 18 4 139 0 2135 -4 2140 -3 3 -85 6 -181 6 -202 1 -182 13 -200
-117 -5 -40 -13 -44 -31 -18 -26 37 -130 108 -192 131 -31 12 -84 24 -117 26
-33 3 -65 7 -72 9 -6 2 -13 2 -15 0z m241 -356 c51 -15 138 -90 148 -127 5
-20 8 -480 4 -632 -1 -28 -11 -45 -47 -82 -55 -56 -93 -75 -171 -86 -134 -18
-241 38 -295 156 -45 99 -58 177 -55 332 3 127 7 155 31 226 32 95 84 167 144
200 23 13 42 22 42 20 0 -2 12 -1 28 3 38 11 119 6 171 -10z"/>
<path d="M3897 4944 c-1 -1 -33 -5 -71 -9 -116 -11 -272 -69 -344 -128 -38
-31 -142 -134 -142 -141 0 -3 -13 -24 -29 -48 -51 -78 -98 -217 -116 -348 -7
-53 -7 -264 0 -300 21 -107 32 -145 64 -220 96 -223 258 -357 501 -416 14 -4
79 -8 146 -9 109 -3 152 2 267 30 40 9 87 30 87 37 0 4 4 7 9 5 13 -3 130 75
171 115 103 100 183 255 215 418 20 99 12 365 -14 462 -79 302 -313 514 -600
543 -63 7 -141 12 -144 9z m150 -364 c51 -22 123 -85 123 -107 0 -7 3 -13 8
-13 4 0 15 -19 25 -43 16 -40 20 -54 33 -116 3 -14 7 -28 9 -32 3 -4 5 -63 5
-130 1 -204 -48 -346 -144 -420 -116 -88 -296 -73 -391 32 -76 84 -113 220
-109 404 3 202 73 363 182 419 74 38 181 41 259 6z"/>
<path d="M7147 4944 c-1 -1 -31 -4 -67 -7 -173 -16 -310 -79 -430 -197 -108
-107 -191 -288 -214 -469 -7 -50 -8 -273 -2 -311 26 -164 101 -317 205 -421
105 -104 264 -185 408 -208 58 -9 279 -7 321 3 12 3 32 8 43 11 31 6 92 26
104 34 6 3 12 6 15 6 3 1 22 9 42 18 67 29 151 95 217 169 l23 27 -20 25 c-19
25 -144 166 -171 193 -11 11 -20 7 -59 -32 -49 -50 -163 -110 -226 -119 -68
-11 -160 -8 -206 5 -25 7 -47 13 -50 13 -3 1 -26 13 -52 28 -54 32 -112 96
-138 153 -23 50 -41 117 -34 124 3 3 220 7 482 7 263 1 484 2 493 3 13 1 15
20 12 149 -1 81 -4 161 -6 177 -7 56 -28 150 -41 180 -7 17 -19 46 -26 65 -23
61 -77 137 -137 195 -32 30 -61 55 -65 55 -3 0 -13 6 -20 13 -16 17 -132 72
-173 82 -16 5 -32 9 -35 10 -26 8 -187 24 -193 19z m111 -354 c62 -19 125 -79
151 -142 21 -51 32 -130 23 -155 -3 -9 -73 -12 -288 -12 -261 1 -284 3 -284
18 0 30 30 121 55 164 23 42 101 116 126 121 8 2 21 6 29 9 43 17 127 16 188
-3z"/>
<path d="M8847 4944 c-1 -1 -29 -4 -62 -7 -131 -13 -228 -56 -318 -142 -65
-61 -64 -62 -71 50 -3 33 -5 62 -5 65 -1 8 -380 4 -388 -3 -6 -6 -8 -137 -3
-162 1 -5 1 -14 0 -20 -2 -13 -2 -87 0 -100 1 -5 1 -14 0 -20 -2 -13 -2 -87 0
-100 1 -5 2 -12 1 -15 -4 -13 -3 -981 1 -985 3 -3 2 -24 -1 -48 -3 -23 -5 -57
-3 -74 l3 -33 208 0 207 0 -1 533 c0 292 2 545 4 560 4 33 71 107 119 131 17
9 32 14 32 10 0 -4 7 0 16 7 10 8 44 13 97 13 67 0 91 -5 132 -25 44 -21 95
-76 105 -113 1 -6 5 -260 7 -563 l3 -553 209 0 208 0 0 572 c0 436 -3 583 -13
615 -7 24 -11 43 -9 43 7 0 -44 122 -69 164 -68 116 -198 188 -359 199 -26 2
-48 2 -50 1z"/>
<path d="M1695 4912 l-30 -3 1 -572 c0 -315 4 -587 8 -605 27 -134 110 -270
200 -327 118 -74 270 -101 426 -75 86 15 194 69 258 129 l52 48 1 -29 c1 -15
3 -37 4 -48 1 -11 3 -34 4 -50 l1 -30 197 2 197 3 1 770 c0 424 -1 775 -2 780
-3 8 -296 12 -403 6 -13 -1 -15 -68 -15 -548 1 -597 2 -578 -58 -629 -80 -67
-207 -94 -313 -65 -61 16 -114 71 -131 134 -4 12 -7 264 -8 560 -1 295 -5 540
-8 543 -6 6 -329 11 -382 6z"/>
<path d="M5813 4910 c-17 -5 -18 -41 -18 -783 l0 -777 210 2 210 3 0 779 0
779 -192 1 c-105 1 -200 -1 -210 -4z"/>
<path d="M10806 3752 c-72 -21 -142 -93 -151 -156 -23 -151 57 -257 205 -273
142 -14 260 84 260 217 0 49 -17 103 -40 130 -11 13 -20 26 -20 30 0 7 -73 44
-108 55 -43 13 -97 12 -146 -3z"/>
</g>
</svg>
