<svg xmlns="http://www.w3.org/2000/svg" viewBox="0 0 470.27888 237.53379"><defs><style>.cls-1{fill:#eb6a23;}.cls-2{fill:#fff;}</style></defs><g id="Layer_2" data-name="Layer 2"><g id="Layer_1-2" data-name="Layer 1"><g id="security-quotient"><path class="cls-1" d="M450.32718,204.099a8.87623,8.87623,0,0,1,2.83731-6.83322,11.022,11.022,0,0,1,14.27737,0,8.877,8.877,0,0,1,2.837,6.83322,8.75765,8.75765,0,0,1-2.80656,6.74243,11.20718,11.20718,0,0,1-14.33858,0A8.75363,8.75363,0,0,1,450.32718,204.099Z"/><path class="cls-2" d="M36.517,78.98327q-2.59408,1.92151-7.65735,1.92181-5.43111,0-8.66395-2.50169a9.19894,9.19894,0,0,1-3.47782-7.19931H0A18.85137,18.85137,0,0,0,3.66086,82.339,24.70824,24.70824,0,0,0,13.7587,90.45378a34.91094,34.91094,0,0,0,14.73482,2.95915q12.264,0,20.01292-5.58267,7.74756-5.58267,7.74873-14.613,0-12.63-13.9722-17.75489a76.59282,76.59282,0,0,0-11.10472-2.95915q-6.58955-1.31177-9.36566-3.112a5.43023,5.43023,0,0,1-2.7761-4.72867A6.35468,6.35468,0,0,1,21.477,39.53732q2.43945-2.01377,6.89472-2.01318,5.1851,0,7.6266,2.47064a8.53482,8.53482,0,0,1,2.44077,6.25393H56.07212A18.65384,18.65384,0,0,0,48.5369,30.87308q-7.53626-5.91741-20.10429-5.91829-11.77641,0-19.06695,5.88784Q2.0741,36.73193,2.07439,45.51654q0,15.07163,23.55165,20.01291,7.07718,1.46465,10.28088,3.32524A5.68269,5.68269,0,0,1,39.11,73.94944,5.98129,5.98129,0,0,1,36.517,78.98327Z"/><path class="cls-2" d="M94.865,93.41293a35.23506,35.23506,0,0,0,15.00954-3.1419,26.46752,26.46752,0,0,0,10.73863-8.75561l-8.66424-9.70158q-5.73553,7.38381-15.92475,7.38264A15.5834,15.5834,0,0,1,85.13323,75.292,16.377,16.377,0,0,1,79.97756,64.9197h42.03872V57.71981q0-15.68051-7.77919-24.22262-7.77963-8.54181-21.32467-8.5424a30.57082,30.57082,0,0,0-16.07734,4.24074A28.21526,28.21526,0,0,0,65.94415,41.27638a39.88316,39.88316,0,0,0-3.8439,17.78594v1.708q0,14.8265,9.1217,23.73469Q80.34277,93.41411,94.865,93.41293ZM84.34014,42.72667a11.014,11.014,0,0,1,8.51136-3.55543q5.613,0,8.66394,3.21746,3.05054,3.21746,3.173,9.10061v1.41046H80.1606Q81.07568,46.28122,84.34014,42.72667Z"/><path class="cls-2" d="M156.66064,93.41293a30.84989,30.84989,0,0,0,13.81961-3.081,24.16014,24.16014,0,0,0,9.85387-8.66424A22.62182,22.62182,0,0,0,183.995,69.37365H167.46018a9.40749,9.40749,0,0,1-3.17294,7.13839,11.56217,11.56217,0,0,1-7.93177,2.68444q-6.34662,0-9.45733-4.4604-3.11159-4.46069-3.11173-14.66629V58.23643q0-10.082,3.14248-14.57375,3.14147-4.49056,9.30445-4.49144a10.58063,10.58063,0,0,1,8.0539,3.22038,12.1226,12.1226,0,0,1,3.17294,8.37255H183.995q-.123-11.71447-7.59644-18.76178-7.47432-7.04731-19.86-7.0476-14.15568,0-22.27035,9.09124-8.11525,9.09183-8.11481,24.345v1.15918q0,15.86412,8.176,24.86341Q142.50482,93.4141,156.66064,93.41293Z"/><path class="cls-2" d="M212.41529,93.41293q11.53173,0,18.06036-7.93148l.48821,6.71139h16.59572V26.17546h-17.694V72.9654q-3.35628,6.23283-12.3251,6.23108-9.39671,0-9.39612-10.32246V26.17546H190.51132V69.43457q.12124,11.776,5.7048,17.87731Q201.79879,93.41381,212.41529,93.41293Z"/><path class="cls-2" d="M275.36984,48.99465q3.112-6.77231,13.11819-6.7723a47.96544,47.96544,0,0,1,6.34559.48792l.244-16.96239a18.50921,18.50921,0,0,0-5.49129-.79309q-9.39671,0-14.70437,9.09124l-.48821-7.87057H257.73678V92.19284h17.63306Z"/><rect class="cls-2" x="301.106" y="26.17546" width="17.69427" height="66.01737"/><path class="cls-2" d="M309.953,18.2434a10.019,10.019,0,0,0,7.16943-2.5626,8.66017,8.66017,0,0,0,2.7149-6.58956,8.63564,8.63564,0,0,0-2.68444-6.52864,11.43811,11.43811,0,0,0-14.42995,0,8.68418,8.68418,0,0,0-2.65427,6.52864,8.65727,8.65727,0,0,0,2.71519,6.58956A10.01535,10.01535,0,0,0,309.953,18.2434Z"/><path class="cls-2" d="M406.14817,26.17546,393.94549,67.23805,381.6816,26.17546H351.30844V9.94525H333.67538V26.17546H324.035V39.11032h9.64037V74.68161q.36594,18.73191,18.91437,18.73132a36.31415,36.31415,0,0,0,10.67771-1.58618V78.46431a28.07613,28.07613,0,0,1-5.18642.42759q-3.96692,0-5.36917-1.58677-1.40445-1.58589-1.40343-5.247V39.11032h15.91583l18.60611,53.26527L383.756,97.806a10.02673,10.02673,0,0,1-3.87436,5.06429q-2.47108,1.52437-7.47431,1.52526l-2.68473-.06092v13.36245a27.7742,27.7742,0,0,0,7.80993,1.15917q13.60524,0,19.52471-12.93485l1.46434-3.47812,26.54126-76.26779Z"/><path class="cls-2" d="M43.44215,153.02877A20.2721,20.2721,0,0,0,26.54126,144.914q-12.08085,0-19.006,9.03033Q.60961,162.9746.61005,178.533q0,16.53538,7.01655,25.687a22.47141,22.47141,0,0,0,18.79253,9.15216q9.88434,0,15.98567-6.89473v31.05642H60.09907V146.13463H44.60132ZM42.4048,192.67914q-3.35628,6.478-11.47051,6.47651a10.64349,10.64349,0,0,1-9.366-4.94949q-3.326-4.94919-3.32523-14.42146,0-10.75327,3.356-15.70422a10.77417,10.77417,0,0,1,9.457-4.95008q8.05419,0,11.34867,6.23284Z"/><path class="cls-2" d="M109.75268,192.92456q-3.35628,6.23284-12.3251,6.23109-9.3967,0-9.39612-10.32247V146.13463H70.3984v43.2591q.12125,11.776,5.7048,17.87732,5.58267,6.10192,16.19917,6.101,11.53171,0,18.06036-7.93148l.48821,6.71138h16.59572V146.13463h-17.694Z"/><path class="cls-2" d="M187.86964,153.09027q-8.45175-8.17543-21.81288-8.17632a31.7707,31.7707,0,0,0-16.50435,4.21029,27.69015,27.69015,0,0,0-10.89092,11.89751,39.14244,39.14244,0,0,0-3.783,17.51123v.79309q0,15.742,8.51136,24.89387,8.51195,9.15245,22.789,9.15216,14.27738,0,22.75827-9.18262,8.48032-9.18233,8.4812-24.37491l-.12213-4.51545Q196.31965,161.26688,187.86964,153.09027Zm-11.6843,41.14635a12.71344,12.71344,0,0,1-20.13475-.06092q-3.53946-4.97907-3.539-14.391,0-10.57051,3.539-15.61285a11.51055,11.51055,0,0,1,10.00617-5.04145,11.70571,11.70571,0,0,1,10.12858,5.07191q3.59922,5.0722,3.59965,14.299Q179.785,189.31877,176.18534,194.23662Z"/><path class="cls-2" d="M227.66908,197.2643q-1.40445-1.58589-1.40342-5.247V159.06949h11.28776V146.13463H226.26566V129.90441H208.6326v16.23022h-9.64038v12.93486h9.64038v35.57129q.36594,18.7319,18.91436,18.73132a36.31443,36.31443,0,0,0,10.67771-1.58618V198.42347a28.07526,28.07526,0,0,1-5.18642.42759Q229.07135,198.85106,227.66908,197.2643Z"/><path class="cls-2" d="M254.015,119.95917a9.96941,9.96941,0,0,0-7.23006,2.5626,9.355,9.355,0,0,0,.06092,13.11819,11.30988,11.30988,0,0,0,14.33857,0,9.31785,9.31785,0,0,0,.03046-13.11819A9.995,9.995,0,0,0,254.015,119.95917Z"/><rect class="cls-2" x="245.16801" y="146.13463" width="17.69427" height="66.01737"/><path class="cls-2" d="M302.69247,144.914a30.57079,30.57079,0,0,0-16.07734,4.24075,28.21525,28.21525,0,0,0-10.89092,12.08085,39.88309,39.88309,0,0,0-3.84391,17.78593v1.708q0,14.82649,9.1217,23.73469,9.12083,8.90907,23.643,8.90791a35.23506,35.23506,0,0,0,15.00954-3.1419,26.4676,26.4676,0,0,0,10.73863-8.75562L321.729,191.773q-5.73555,7.38383-15.92475,7.38265a15.58344,15.58344,0,0,1-10.89093-3.90453,16.37706,16.37706,0,0,1-5.15566-10.37226h42.03872V177.679q0-15.6805-7.77919-24.22261Q316.23752,144.91454,302.69247,144.914Zm11.776,27.945H289.94066q.91508-6.61854,4.17954-10.1731a11.014,11.014,0,0,1,8.51136-3.55543q5.613,0,8.66394,3.21746,3.05052,3.21747,3.17294,9.10062Z"/><path class="cls-2" d="M374.43309,144.914q-11.89765,0-18.97528,8.847l-.54913-7.62631h-16.596V212.152h17.63306V165.49035a12.12507,12.12507,0,0,1,11.16563-6.35995q5.67449,0,8.11511,2.538,2.43946,2.53829,2.44048,8.1646v42.319H395.3V169.50324q-.123-12.26448-5.247-18.42674Q384.92762,144.91483,374.43309,144.914Z"/><path class="cls-2" d="M433.42161,198.85106q-3.96691,0-5.36917-1.58676-1.40447-1.58589-1.40343-5.247V159.06949h11.28776V146.13463H426.649V129.90441H409.01595v16.23022h-9.64037v12.93486h9.64037v35.57129q.36594,18.7319,18.91436,18.73132a36.31443,36.31443,0,0,0,10.67771-1.58618V198.42347A28.07514,28.07514,0,0,1,433.42161,198.85106Z"/></g></g></g></svg>